<svg xmlns="http://www.w3.org/2000/svg" viewBox="0 0 128 128" role="img" aria-label="Logo Passarinho WebM">
  <defs>
    <linearGradient id="bg" x1="18" y1="12" x2="110" y2="118" gradientUnits="userSpaceOnUse">
      <stop stop-color="#65efe2"/>
      <stop offset="1" stop-color="#12c7b5"/>
    </linearGradient>
    <linearGradient id="wing" x1="35" y1="45" x2="86" y2="92" gradientUnits="userSpaceOnUse">
      <stop stop-color="#ffffff"/>
      <stop offset="1" stop-color="#dffdf8"/>
    </linearGradient>
  </defs>
  <rect width="128" height="128" rx="28" fill="url(#bg)"/>
  <path fill="#07332d" fill-opacity=".16" d="M28 89.4c11.7 11.2 29.2 18.8 46.8 18.8 23 0 39.7-12.8 44.8-28.9-12.7 13.1-31.3 21.2-52 21.2-15.5 0-29.1-4.2-39.6-11.1Z"/>
  <path fill="#ffffff" d="M20.8 76.7c-.9-2.7 1.6-5.4 4.4-4.8l13.4 3.1c4.9 1.1 10.1-.4 13.5-4.1l22.3-24.2c7.5-8.1 20-8.9 28.5-1.8 6.3 5.3 8.8 13.9 6.2 21.8-5.1 15.7-20.1 27-37.8 27-23.8 0-43.8-11.4-50.5-17Z"/>
  <path fill="url(#wing)" d="M44.4 76.7c13.3 1.2 29.2-6.7 40.2-22.1 2.2-3 6.9-1.4 6.8 2.3-.4 20.6-17.3 36.4-40.5 36.4-10.7 0-20.7-2.4-28.3-6.3 6.8-5.9 13.9-10.9 21.8-10.3Z"/>
  <path fill="#07332d" d="M95.3 53.8a4.6 4.6 0 1 0 0-9.2 4.6 4.6 0 0 0 0 9.2Z"/>
  <path fill="#f1b84b" d="m106.8 57.1 14.4 5.8-14.9 6.8c1-4.1 1.2-8.3.5-12.6Z"/>
  <path fill="#07332d" fill-opacity=".2" d="M50.9 93.3c23.2 0 40.1-15.8 40.5-36.4 0-.8-.2-1.5-.6-2.1-8.7 17.7-25.1 30.4-46.7 30.4-7.8 0-15.2-1.2-21.5-3.4v5.2c7.6 3.9 17.6 6.3 28.3 6.3Z"/>
</svg>
