<svg xmlns="http://www.w3.org/2000/svg" viewBox="0 0 128 128" role="img" aria-label="Logo Free Bird">
  <path fill="#12c7b5" d="M116.4 34.7c-4.7 2.1-9.6 3.5-14.8 4.1 5.4-3.4 9.2-8.5 11.1-14.5-5.1 3-10.6 5.2-16.4 6.4a25.4 25.4 0 0 0-18.7-8.2c-14.2 0-25.6 11.6-25.6 25.7 0 2 .2 4 .7 5.8-21.2-1.2-40-11.5-52.6-27.1a25.3 25.3 0 0 0 7.9 34.1c-4.2-.1-8-1.3-11.4-3.2v.3c0 12.4 8.8 22.8 20.5 25.2-2.2.6-4.5.9-6.9.9-1.7 0-3.3-.2-4.9-.5 3.3 10.3 12.9 17.7 24.2 17.9A51.1 51.1 0 0 1 0 111.5a72 72 0 0 0 39.1 11.5c46.9 0 72.6-39.4 72.6-73.5v-3.3c4.9-3.6 9.1-7.6 12.7-11.5Z"/>
</svg>

